<svg version="1.1" xmlns="http://www.w3.org/2000/svg" viewBox="0 0 2096.794948032924 387.5357919100268" width="2096.794948032924" height="387.5357919100268">
  <!-- svg-source:excalidraw -->
  
  <defs>
    <style>
      @font-face {
        font-family: "Virgil";
        src: url("https://excalidraw.com/Virgil.woff2");
      }
      @font-face {
        font-family: "Cascadia";
        src: url("https://excalidraw.com/Cascadia.woff2");
      }
    </style>
  </defs>
  <rect x="0" y="0" width="2096.794948032924" height="387.5357919100268" fill="#ffffff"></rect><g transform="translate(58.22292218889487 10) rotate(0 142.51243591308594 91.40802764892578)"><path d="M-0.08017329579047276 0.08602963734653318 C102.88230166833861 -3.174297731288365, 203.21076885401382 -0.6818210845523007, 284.11579023453135 -0.5705605379247577 M0.2879079518576036 0.3154682819582551 C110.83630276138695 2.1691945323508897, 219.81932528628755 1.5435373273820283, 284.75450977583847 0.43067349111986697 M286.0160885825753 -0.9759516492486 C287.7253972786964 71.6894049012564, 284.53217976275096 144.41679605869498, 286.948887206614 180.96248462051153 M285.7713836543262 0.8724568374454975 C285.92157672494994 39.87253474696239, 284.76356397718536 78.65171498191873, 284.12119795009494 183.57438318803906 M284.0228670360191 182.5836595488723 C222.17907899693816 182.9703929582486, 158.00969432923358 182.81880167141458, -0.8287041195622422 182.91620418790674 M284.4100585650282 183.24796470491543 C205.71296880797408 184.90733602594713, 126.7743051651122 184.30370240380023, 0.04438062646335554 182.2859349834605 M0.9974885955452919 184.5880508646369 C-1.415742082704049 124.34208561619528, -0.7203029824385461 67.74360419343725, 1.0806320682168007 -0.8094351068139076 M0.5210362784564495 183.7582526691258 C0.40875268155108935 130.3277345923844, -1.1216889602564668 77.74687548170743, -0.36362360790371895 -0.4751771204173565" stroke="#000000" stroke-width="1" fill="none"></path></g><g><g transform="translate(358.61705671037925 100.94629288182858) rotate(0 106.3770487136074 -0.6295055301376067)"><path d="M-0.8379103526473045 0.42936736196279535 C34.95434679509626 0.091492734306786, 177.62926265604426 -1.3755968731953032, 213.59200777986206 -1.6883784222380314 M0.9230479828733951 -0.3908187183458358 C36.623211977915105 -0.6572674172303494, 176.8059723492396 -0.7319966429503836, 212.42972520193206 -0.7706976821516696" stroke="#000000" stroke-width="1" fill="none"></path></g><g transform="translate(358.61705671037925 100.94629288182858) rotate(0 106.3770487136074 -0.6295055301376067)"><path d="M184.96372553566263 8.834939142575287 C187.97828026099828 9.185853062279286, 194.10669702306262 4.492108942911568, 211.37088359346734 -0.1139798825477305 M183.57642185920642 10.299172924717688 C193.43611965800022 6.649867850719609, 201.78498593534366 2.0410588410752935, 213.40245334630953 -0.21044043729650408" stroke="#000000" stroke-width="1" fill="none"></path></g><g transform="translate(358.61705671037925 100.94629288182858) rotate(0 106.3770487136074 -0.6295055301376067)"><path d="M184.9454146060503 -11.686261287606577 C188.0216402589853 -7.165200608637072, 194.1537779009684 -7.688925826385024, 211.37088359346734 -0.1139798825477305 M183.55811092959408 -10.222027505464176 C193.2773638254571 -7.279027606645855, 201.63211240167018 -5.295498780347903, 213.40245334630953 -0.21044043729650408" stroke="#000000" stroke-width="1" fill="none"></path></g></g><g transform="translate(580.536202566964 11.91147504534041) rotate(0 144.98220825195312 91.7649154663086)"><path d="M1.3025220707437706 1.2564543025386867 C105.97059793422794 3.39467956615322, 210.8489592373345 1.795224480540329, 289.9342120778814 0.04357910485441061 M0.0069255794298695725 -0.204859855560726 C97.05809838376649 0.933856020226018, 195.42319039495206 1.0533374321775033, 290.0765097483999 0.19927049283951537 M291.8798392787576 -0.6272351518273354 C287.38788656558313 72.2011173555126, 288.70772294368066 146.52094782916112, 290.4689870849252 183.65634729713202 M289.68425584957004 0.36505453661084175 C290.49356913309117 45.684018535829324, 290.90501820783635 93.28025380579976, 290.49636186286807 183.0642533786595 M289.2021257780738 183.0397009037907 C199.51017320715735 184.83386854764785, 110.20465854187144 184.95694699349883, 1.310806934535255 182.69352284769082 M289.49808379064496 182.82300196092885 C209.0263543908557 183.77102210824586, 126.64854303912725 183.05294958642807, 0.7227757385272419 183.14618022588905 M-0.04087557643651962 182.42488076537848 C-1.0693272514403036 119.05454284560287, 0.4882868366181681 55.68300711088585, 0.24598035961389542 1.7179389223456383 M0.7470111958682537 184.50726668909192 C0.4983638614127943 140.46286304451073, 0.8042297452400038 98.4303498113065, 0.3751801364123821 0.3203647620975971" stroke="#000000" stroke-width="1" fill="none"></path></g><g><g transform="translate(891.1579066685265 99.40542797236299) rotate(0 100.53143352419136 -0.5796371707772039)"><path d="M-0.5965211257338524 0.5287397012114525 C32.92378334750732 0.5937162191628905, 168.31112502167622 0.3546648000476219, 201.6593881741166 0.21304494348734115 M1.2911665539164097 -0.23927590099163365 C34.71089837463883 -0.5268091155846177, 167.9072907283126 -1.880510155054062, 201.3382542289514 -1.6836221259794435" stroke="#000000" stroke-width="1" fill="none"></path></g><g transform="translate(891.1579066685265 99.40542797236299) rotate(0 100.53143352419136 -0.5796371707772039)"><path d="M174.06280307939866 10.660371844361292 C183.62232721281993 3.6198319209953524, 192.44062049079514 0.8983321205829418, 201.01494132799095 -0.3206643876395425 M173.76588424390772 8.091263861099945 C180.06590191678112 5.672688104941461, 187.96042977467232 2.829802335527816, 202.3045556813199 -1.346214846219798" stroke="#000000" stroke-width="1" fill="none"></path></g><g transform="translate(891.1579066685265 99.40542797236299) rotate(0 100.53143352419136 -0.5796371707772039)"><path d="M173.99492226040798 -9.860724485519645 C183.5476146440271 -9.825319079402131, 192.3893130096708 -5.471210986519093, 201.01494132799095 -0.3206643876395425 M173.69800342491703 -12.429832468780992 C179.87606951995588 -9.376543691164942, 187.7886977554842 -6.747492047007129, 202.3045556813199 -1.346214846219798" stroke="#000000" stroke-width="1" fill="none"></path></g></g><g transform="translate(1099.5422450474327 10.851149422781816) rotate(0 144.98220825195312 91.7649154663086)"><path d="M1.4926888847273263 0.5378907101766763 C81.50153924832125 -1.087909079588911, 164.85474008329504 -1.2007419111471545, 290.9866638530692 -0.5002736603996399 M-0.4341968518775102 -0.5207343751966088 C67.04507056061004 -1.5015649006421268, 134.18342309707097 -0.5460164350324213, 290.21747915406786 0.7401219876835531 M289.2381046041846 0.19828853756189346 C289.32008330326676 52.58316590398576, 291.73177997570633 104.53210729628853, 291.30839969962835 182.94267163425684 M290.2994462735951 0.22201265022158623 C289.5492366111035 66.4279771717506, 287.9875056302304 132.4900322389339, 290.96032266691327 182.91622544452548 M289.00337053266816 183.19785475534673 C182.7755832360907 183.38894200931495, 79.60466265659697 184.86952679696066, -0.4380777805219074 184.67816022769074 M290.37263764182944 184.21250829518445 C175.94492200600718 183.19079236688938, 61.029986067608796 183.19554439280782, 0.14841508020341834 183.47060885487232 M0.5142653211951256 183.63115034252405 C-1.9447596353719432 118.55253899026062, 0.4681729989816945 57.054104945126085, -1.6461066976189613 0.7835992351174355 M-0.8485027067363262 183.45567406341434 C0.62812735527386 118.29815508364149, 0.5700508543812208 53.56288875889794, 0.8155246265232563 0.18924690410494804" stroke="#000000" stroke-width="1" fill="none"></path></g><g><g transform="translate(1409.6770106724327 99.20910614231127) rotate(0 99.87997630983591 0.13491093924179154)"><path d="M-1.1490281447768211 -0.7375765219330788 C32.52484078158935 -0.757739528507913, 167.22121565888324 0.5655318136467296, 200.90898076444864 0.5278349325601766 M0.4485933498758823 1.4895918587129562 C34.10251096161393 1.0695204379530747, 166.85517895005333 -0.9624401156370832, 200.19388292920775 -1.219769980229362" stroke="#000000" stroke-width="1" fill="none"></path></g><g transform="translate(1409.6770106724327 99.20910614231127) rotate(0 99.87997630983591 0.13491093924179154)"><path d="M170.89926056240378 10.118678089483257 C179.02850964525632 8.323838193788262, 182.3094022284396 5.023960961673913, 198.72220119279808 -0.7688682111277423 M172.17310054649292 9.648550056173082 C182.31114887830464 6.113990720807356, 192.84464920122068 1.1062751468003613, 200.6998839360196 -2.045170165069326" stroke="#000000" stroke-width="1" fill="none"></path></g><g transform="translate(1409.6770106724327 99.20910614231127) rotate(0 99.87997630983591 0.13491093924179154)"><path d="M170.65243801200344 -10.401046104921829 C178.9433498677292 -7.977117366816026, 182.27495969679086 -7.060589348939373, 198.72220119279808 -0.7688682111277423 M171.92627799609258 -10.871174138232004 C182.06551186956165 -6.730506381681002, 192.69131514192884 -4.064567089079383, 200.6998839360196 -2.045170165069326" stroke="#000000" stroke-width="1" fill="none"></path></g></g><g transform="translate(1618.061349051339 10.628889901297441) rotate(0 234.36679949079257 91.7649154663086)"><path d="M0.3342974747447881 0.5381100900017206 C166.3494176033105 0.7167008336862357, 331.80566738712747 0.6371066662809513, 468.9374286020067 0.6687141742524083 M0.12177664394357626 -0.16269937592257347 C120.04098454207607 -0.2398848974421967, 239.37506765688167 0.13434889858031324, 468.360477787789 -0.40337330781752223 M469.73780923762513 -1.7667306885123253 C468.2142769916974 69.6036888100291, 470.50707717976195 137.35848483444943, 469.70141487994385 184.97106061130762 M468.75640722417427 0.9766780249774456 C468.30027687508834 68.9780118690404, 468.28822851140274 139.11278000875765, 468.94133146905494 182.98473359271884 M469.0941317106302 182.92496179905078 C345.85964258633703 184.01767443044716, 224.37928104952266 183.67651190433637, 0.7652381097866927 182.7158463813209 M468.8242083951864 183.3122859698387 C315.82560557965985 184.75078235876884, 162.71875860229477 184.76738672840534, 0.2433141630722161 183.41490800663115 M-0.9412476792931557 184.56310377269983 C-0.6022798825232034 122.80951448182091, -1.8551187325445657 63.9564149980709, 0.15106584876775742 0.0995858684182167 M0.5299495942890644 182.7266968600452 C-0.5198765296682943 136.43563737032267, -0.3798329133734335 89.59417428562944, -0.3366627208888531 0.9537999741733074" stroke="#000000" stroke-width="1" fill="none"></path></g><g transform="translate(110.37543160574762 65.92146301269537) rotate(0 87.40147908528647 29.96622140066964)"><text x="0" y="47.9324428013393" font-family="Cascadia, Segoe UI Emoji" font-size="49.94370233444943px" fill="#000000" text-anchor="start" style="white-space: pre;" direction="ltr">Source</text></g><g transform="translate(623.291320800781 51.90975298200334) rotate(0 103.50037595059007 46.328739711216514)"><text x="0" y="37.32873971121651" font-family="Cascadia, Segoe UI Emoji" font-size="39.42871464784384px" fill="#000000" text-anchor="start" style="white-space: pre;" direction="ltr">  Watch</text><text x="0" y="83.65747942243301" font-family="Cascadia, Segoe UI Emoji" font-size="39.42871464784384px" fill="#000000" text-anchor="start" style="white-space: pre;" direction="ltr">Directory</text></g><g transform="translate(1170.74762732787 49.96735709054127) rotate(0 69 47.5)"><text x="0" y="38.5" font-family="Cascadia, Segoe UI Emoji" font-size="39.42871464784384px" fill="#000000" text-anchor="start" style="white-space: pre;" direction="ltr">Upload</text><text x="0" y="86" font-family="Cascadia, Segoe UI Emoji" font-size="39.42871464784384px" fill="#000000" text-anchor="start" style="white-space: pre;" direction="ltr">Video</text></g><g transform="translate(1669.3179223892532 75.62495277041478) rotate(0 185 23.5)"><text x="0" y="38" font-family="Cascadia, Segoe UI Emoji" font-size="39.42871464784384px" fill="#000000" text-anchor="start" style="white-space: pre;" direction="ltr">Delete from disk</text></g><g transform="translate(384.51298304966525 68.56964765276234) rotate(0 70.5 12)"><text x="0" y="19" font-family="Cascadia, Segoe UI Emoji" font-size="20px" fill="#000000" text-anchor="start" style="white-space: pre;" direction="ltr">Generated in</text></g><g transform="translate(392.75163922991084 109.36711556570879) rotate(0 64.5 12)"><text x="0" y="19" font-family="Cascadia, Segoe UI Emoji" font-size="20px" fill="#000000" text-anchor="start" style="white-space: pre;" direction="ltr">Watch space</text></g><g transform="translate(904.2167009626119 60.371579851423064) rotate(0 76.5 12)"><text x="0" y="19" font-family="Cascadia, Segoe UI Emoji" font-size="20px" fill="#000000" text-anchor="start" style="white-space: pre;" direction="ltr">Path of Video</text></g><g transform="translate(953.9882085891002 111.32543582008009) rotate(0 23.5 12)"><text x="0" y="19" font-family="Cascadia, Segoe UI Emoji" font-size="20px" fill="#000000" text-anchor="start" style="white-space: pre;" direction="ltr">Tags</text></g><g transform="translate(1419.080854143415 59.255552019391814) rotate(0 76.5 12)"><text x="0" y="19" font-family="Cascadia, Segoe UI Emoji" font-size="20px" fill="#000000" text-anchor="start" style="white-space: pre;" direction="ltr">On Completion</text></g><g transform="translate(35 222.23751177106595) rotate(0 187.49999999999997 23.5)"><text x="0" y="19.5" font-family="Cascadia, Segoe UI Emoji" font-size="20px" fill="#000000" text-anchor="start" style="white-space: pre;" direction="ltr">1. Nvidia ShadowPlay</text><text x="0" y="43" font-family="Cascadia, Segoe UI Emoji" font-size="20px" fill="#000000" text-anchor="start" style="white-space: pre;" direction="ltr">2. Copied from other directories</text></g><g transform="translate(559.5189267113096 222.36683364141572) rotate(0 164.00000000000006 35.5)"><text x="0" y="18.666666666666668" font-family="Cascadia, Segoe UI Emoji" font-size="20px" fill="#000000" text-anchor="start" style="white-space: pre;" direction="ltr">Watches for generated videos</text><text x="0" y="42.333333333333336" font-family="Cascadia, Segoe UI Emoji" font-size="20px" fill="#000000" text-anchor="start" style="white-space: pre;" direction="ltr">only with Supported formats</text><text x="0" y="66" font-family="Cascadia, Segoe UI Emoji" font-size="20px" fill="#000000" text-anchor="start" style="white-space: pre;" direction="ltr"></text></g><g><g transform="translate(1222.3533189467823 199.07300840105336) rotate(0 21.32731272293597 68.39662246625483)"><path d="M-31.829528629060867 -0.7113338298281224 C-49.6015927322604 20.674544719131227, -173.23650883198215 108.94403437645676, -137.968130871015 128.57306936280798 C-102.69975291004786 148.2021043491592, 142.3067890745805 138.558944224467, 179.78073913674206 117.06287608827921 C217.2546891989036 95.56680795209142, 102.25974644048284 19.20545604211245, 86.87556950195427 -0.4033394543187796 M-30.10960900140743 -1.7909873708733859 C-47.48741579964051 19.199259213581247, -170.74203002061194 107.01073802780861, -135.82421066692504 126.98524098900143 C-100.90639131323815 146.95974395019425, 142.29874347993487 139.62004508361542, 179.39730712071398 118.05603039628352 C216.49587076149308 96.4920157089516, 102.3393183942433 17.23323601327803, 86.76717117774966 -2.3988471349900693" stroke="#000000" stroke-width="1" fill="none"></path></g></g><g><g transform="translate(1360.8357104920221 243.3201843962521) rotate(0 -26.15809281234408 -22.924522023831997)"><path d="M-0.9780502215027809 -1.0622421607375145 C-9.650875183622533 -8.80900044498734, -43.70919129987804 -39.438295420899614, -52.34452083963451 -46.84352080720022 M0.7093346828687936 0.9944767595361919 C-8.050091433757167 -6.596610693808197, -43.9868694041725 -37.68806781897097, -53.02552030755689 -45.78883688814483" stroke="#000000" stroke-width="1" fill="none"></path></g><g transform="translate(1360.8357104920221 243.3201843962521) rotate(0 -26.15809281234408 -22.924522023831997)"><path d="M-26.8446367598615 -34.04494651484079 C-34.24275604635017 -38.00483208884399, -39.661847709089955 -41.17137410499083, -51.41421218736579 -46.334567143689014 M-25.362821753277572 -35.35276370200104 C-34.21449816056881 -38.98499693710824, -44.577243701460176 -42.87062202894471, -53.250957423434755 -45.863857428650476" stroke="#000000" stroke-width="1" fill="none"></path></g><g transform="translate(1360.8357104920221 243.3201843962521) rotate(0 -26.15809281234408 -22.924522023831997)"><path d="M-40.38789005163027 -18.627414524900445 C-44.02352510119435 -26.70701094992361, -45.72676684844207 -34.10364699943945, -51.41421218736579 -46.334567143689014 M-38.90607504504634 -19.9352317120607 C-43.12866346647167 -29.105882004123295, -48.71413839337362 -38.429914022938576, -53.250957423434755 -45.863857428650476" stroke="#000000" stroke-width="1" fill="none"></path></g></g><g transform="translate(1054.7388375635514 353.5357919100268) rotate(0 193 12)"><text x="0" y="19" font-family="Cascadia, Segoe UI Emoji" font-size="20px" fill="#000000" text-anchor="start" style="white-space: pre;" direction="ltr">Retry later for Rate Limit Errors</text></g></svg>